<svg width="44" height="44" viewBox="0 0 44 44" fill="none" xmlns="http://www.w3.org/2000/svg">
<g clip-path="url(#clip0_202_14)">
<path d="M33 7.33325H11C8.975 7.33325 7.33337 8.97487 7.33337 10.9999V32.9999C7.33337 35.025 8.975 36.6666 11 36.6666H33C35.0251 36.6666 36.6667 35.025 36.6667 32.9999V10.9999C36.6667 8.97487 35.0251 7.33325 33 7.33325Z" stroke="white" stroke-width="2.75" stroke-linecap="round" stroke-linejoin="round"/>
<path d="M14.6666 20.1667V29.3334" stroke="white" stroke-width="2.75" stroke-linecap="round" stroke-linejoin="round"/>
<path d="M14.6666 14.6667V14.6851" stroke="white" stroke-width="2.75" stroke-linecap="round" stroke-linejoin="round"/>
<path d="M22 29.3334V20.1667" stroke="white" stroke-width="2.75" stroke-linecap="round" stroke-linejoin="round"/>
<path d="M29.3333 29.3334V23.8334C29.3333 22.861 28.947 21.9283 28.2594 21.2407C27.5718 20.5531 26.6391 20.1667 25.6667 20.1667C24.6942 20.1667 23.7616 20.5531 23.0739 21.2407C22.3863 21.9283 22 22.861 22 23.8334" stroke="white" stroke-width="2.75" stroke-linecap="round" stroke-linejoin="round"/>
</g>
<defs>
<clipPath id="clip0_202_14">
<rect width="44" height="44" fill="white"/>
</clipPath>
</defs>
</svg>
