<svg width="44" height="44" viewBox="0 0 44 44" fill="none" xmlns="http://www.w3.org/2000/svg">
<g clip-path="url(#clip0_202_6)">
<path d="M16.5 34.8332C8.61667 37.3999 8.61667 30.2499 5.5 29.3332M27.5 38.4999V32.0832C27.5 30.2499 27.6833 29.5166 26.5833 28.4166C31.7167 27.8666 36.6667 25.8499 36.6667 17.4166C36.6644 15.2257 35.8097 13.1216 34.2833 11.5499C34.9992 9.64685 34.9333 7.53789 34.1 5.68324C34.1 5.68324 32.0833 5.13324 27.6833 8.06658C23.9566 7.09599 20.0434 7.09599 16.3167 8.06658C11.9167 5.13324 9.9 5.68324 9.9 5.68324C9.06672 7.53789 9.00081 9.64685 9.71667 11.5499C8.19033 13.1216 7.33557 15.2257 7.33333 17.4166C7.33333 25.8499 12.2833 27.8666 17.4167 28.4166C16.3167 29.5166 16.3167 30.6166 16.5 32.0832V38.4999" stroke="white" stroke-width="2.75" stroke-linecap="round" stroke-linejoin="round"/>
</g>
<defs>
<clipPath id="clip0_202_6">
<rect width="44" height="44" fill="white"/>
</clipPath>
</defs>
</svg>
