<svg width="44" height="44" viewBox="0 0 44 44" fill="none" xmlns="http://www.w3.org/2000/svg">
<g clip-path="url(#clip0_202_21)">
<path d="M5.5 38.5001L8.525 31.5334C6.21071 28.2482 5.17489 24.2313 5.61192 20.2366C6.04894 16.2419 7.92877 12.544 10.8986 9.83685C13.8685 7.12972 17.7242 5.59946 21.7422 5.53325C25.7602 5.46704 29.6642 6.86943 32.7217 9.47725C35.7791 12.0851 37.7798 15.719 38.3482 19.6972C38.9166 23.6753 38.0136 27.7241 35.8089 31.0838C33.6041 34.4435 30.249 36.8831 26.3732 37.9448C22.4975 39.0064 18.3675 38.6172 14.7583 36.8501L5.5 38.5001Z" stroke="white" stroke-width="2.75" stroke-linecap="round" stroke-linejoin="round"/>
<path d="M16.5 18.3333C16.5 18.5764 16.5966 18.8095 16.7685 18.9814C16.9404 19.1533 17.1736 19.2499 17.4167 19.2499C17.6598 19.2499 17.8929 19.1533 18.0648 18.9814C18.2368 18.8095 18.3333 18.5764 18.3333 18.3333V16.4999C18.3333 16.2568 18.2368 16.0236 18.0648 15.8517C17.8929 15.6798 17.6598 15.5833 17.4167 15.5833C17.1736 15.5833 16.9404 15.6798 16.7685 15.8517C16.5966 16.0236 16.5 16.2568 16.5 16.4999V18.3333ZM16.5 18.3333C16.5 20.7644 17.4658 23.096 19.1849 24.8151C20.9039 26.5341 23.2355 27.4999 25.6667 27.4999M25.6667 27.4999H27.5C27.7431 27.4999 27.9763 27.4033 28.1482 27.2314C28.3201 27.0595 28.4167 26.8264 28.4167 26.5833C28.4167 26.3401 28.3201 26.107 28.1482 25.9351C27.9763 25.7632 27.7431 25.6666 27.5 25.6666H25.6667C25.4236 25.6666 25.1904 25.7632 25.0185 25.9351C24.8466 26.107 24.75 26.3401 24.75 26.5833C24.75 26.8264 24.8466 27.0595 25.0185 27.2314C25.1904 27.4033 25.4236 27.4999 25.6667 27.4999Z" stroke="white" stroke-width="2.75" stroke-linecap="round" stroke-linejoin="round"/>
</g>
<defs>
<clipPath id="clip0_202_21">
<rect width="44" height="44" fill="white"/>
</clipPath>
</defs>
</svg>
