<svg width="44" height="44" viewBox="0 0 44 44" fill="none" xmlns="http://www.w3.org/2000/svg">
<g clip-path="url(#clip0_202_9)">
<path d="M29.3334 7.33325H14.6667C10.6166 7.33325 7.33337 10.6165 7.33337 14.6666V29.3333C7.33337 33.3833 10.6166 36.6666 14.6667 36.6666H29.3334C33.3835 36.6666 36.6667 33.3833 36.6667 29.3333V14.6666C36.6667 10.6165 33.3835 7.33325 29.3334 7.33325Z" stroke="white" stroke-width="2.75" stroke-linecap="round" stroke-linejoin="round"/>
<path d="M22 27.5C25.0376 27.5 27.5 25.0376 27.5 22C27.5 18.9624 25.0376 16.5 22 16.5C18.9624 16.5 16.5 18.9624 16.5 22C16.5 25.0376 18.9624 27.5 22 27.5Z" stroke="white" stroke-width="2.75" stroke-linecap="round" stroke-linejoin="round"/>
<path d="M30.25 13.75V13.751" stroke="white" stroke-width="2.75" stroke-linecap="round" stroke-linejoin="round"/>
</g>
<defs>
<clipPath id="clip0_202_9">
<rect width="44" height="44" fill="white"/>
</clipPath>
</defs>
</svg>
